<svg width="32" height="32" viewBox="0 0 32 32" fill="none" xmlns="http://www.w3.org/2000/svg">
<path d="M26.8438 26.4638L19.0187 14.1663L26.74 5.6725C26.9146 5.47566 27.0046 5.21791 26.9905 4.95515C26.9764 4.69239 26.8592 4.44579 26.6645 4.26882C26.4697 4.09185 26.2131 3.99876 25.9502 4.00974C25.6873 4.02073 25.4393 4.1349 25.26 4.3275L17.905 12.4175L12.8437 4.46375C12.7535 4.32169 12.6289 4.20471 12.4814 4.12365C12.3339 4.04258 12.1683 4.00005 12 4H6C5.8207 3.99991 5.64468 4.04803 5.49036 4.13932C5.33604 4.23062 5.20911 4.36172 5.12285 4.5189C5.03659 4.67609 4.99417 4.85357 5.00005 5.03278C5.00593 5.21198 5.05988 5.3863 5.15625 5.5375L12.9812 17.8337L5.26 26.3337C5.16983 26.4306 5.09979 26.5444 5.05392 26.6685C5.00806 26.7927 4.98728 26.9247 4.99281 27.0569C4.99833 27.1891 5.03004 27.3189 5.0861 27.4388C5.14216 27.5586 5.22146 27.6662 5.31939 27.7552C5.41732 27.8442 5.53194 27.9129 5.65661 27.9572C5.78128 28.0016 5.91352 28.0208 6.04566 28.0137C6.1778 28.0066 6.30721 27.9733 6.4264 27.9158C6.54559 27.8583 6.65218 27.7777 6.74 27.6787L14.095 19.5888L19.1562 27.5425C19.2472 27.6834 19.3722 27.7991 19.5196 27.8791C19.6671 27.959 19.8323 28.0006 20 28H26C26.1791 27.9999 26.3549 27.9518 26.509 27.8606C26.6632 27.7693 26.79 27.6384 26.8762 27.4814C26.9624 27.3244 27.0049 27.1472 26.9992 26.9681C26.9935 26.7891 26.9398 26.6149 26.8438 26.4638ZM20.5487 26L7.82125 6H11.4462L24.1787 26H20.5487Z" fill="white"/>
</svg>
